<svg width="16" height="20" viewBox="0 0 16 20" fill="none" xmlns="http://www.w3.org/2000/svg">
<path fill-rule="evenodd" clip-rule="evenodd" d="M0.988156 2.57141C1.30072 2.25885 1.72464 2.08325 2.16667 2.08325H5.08333C5.54357 2.08325 5.91667 2.45635 5.91667 2.91659V3.33325H10.0833V2.91659C10.0833 2.45635 10.4564 2.08325 10.9167 2.08325H13.8333C14.2754 2.08325 14.6993 2.25885 15.0118 2.57141C15.3244 2.88397 15.5 3.30789 15.5 3.74992V17.4999C15.5 17.9419 15.3244 18.3659 15.0118 18.6784C14.6993 18.991 14.2754 19.1666 13.8333 19.1666H2.16667C1.72464 19.1666 1.30072 18.991 0.988156 18.6784C0.675595 18.3659 0.5 17.9419 0.5 17.4999V3.74992C0.5 3.30789 0.675595 2.88397 0.988156 2.57141ZM11.75 3.74992V4.16659C11.75 4.62682 11.3769 4.99992 10.9167 4.99992H5.08333C4.6231 4.99992 4.25 4.62682 4.25 4.16659V3.74992H2.16667L2.16667 17.4999H13.8333V3.74992H11.75Z" fill="#B0B0B0"/>
<path fill-rule="evenodd" clip-rule="evenodd" d="M4.25 1.66659C4.25 1.20635 4.6231 0.833252 5.08333 0.833252H10.9167C11.3769 0.833252 11.75 1.20635 11.75 1.66659V4.16659C11.75 4.62682 11.3769 4.99992 10.9167 4.99992H5.08333C4.6231 4.99992 4.25 4.62682 4.25 4.16659V1.66659ZM5.91667 2.49992V3.33325H10.0833V2.49992H5.91667ZM9.83922 7.32729C10.1647 7.65271 10.1647 8.18035 9.83929 8.5058L7.92833 10.417H10.085C10.4221 10.417 10.726 10.6201 10.8549 10.9315C10.9839 11.243 10.9125 11.6014 10.6741 11.8397L7.33911 15.1731C7.01359 15.4984 6.48595 15.4983 6.1606 15.1728C5.83524 14.8473 5.83537 14.3196 6.16089 13.9943L8.07244 12.0837H5.91667C5.57962 12.0837 5.27577 11.8806 5.14678 11.5693C5.01779 11.2579 5.08906 10.8995 5.32737 10.6611L8.66071 7.32737C8.98612 7.00191 9.51376 7.00188 9.83922 7.32729Z" fill="#B0B0B0"/>
</svg>
