<svg width="30" height="22" viewBox="0 0 30 22" fill="none" xmlns="http://www.w3.org/2000/svg">
<path d="M1.5 21.5C1.075 21.5 0.719 21.356 0.432 21.068C0.144 20.781 0 20.425 0 20V12.5C0 11.825 0.1375 11.2125 0.4125 10.6625C0.6875 10.1125 1.05 9.625 1.5 9.2V5C1.5 3.75 1.9375 2.6875 2.8125 1.8125C3.6875 0.9375 4.75 0.5 6 0.5H12C12.575 0.5 13.1125 0.6065 13.6125 0.8195C14.1125 1.0315 14.575 1.325 15 1.7C15.425 1.325 15.8875 1.0315 16.3875 0.8195C16.8875 0.6065 17.425 0.5 18 0.5H24C25.25 0.5 26.3125 0.9375 27.1875 1.8125C28.0625 2.6875 28.5 3.75 28.5 5V9.2C28.95 9.625 29.3125 10.1125 29.5875 10.6625C29.8625 11.2125 30 11.825 30 12.5V20C30 20.425 29.856 20.781 29.568 21.068C29.281 21.356 28.925 21.5 28.5 21.5C28.075 21.5 27.719 21.356 27.432 21.068C27.144 20.781 27 20.425 27 20V18.5H3V20C3 20.425 2.8565 20.781 2.5695 21.068C2.2815 21.356 1.925 21.5 1.5 21.5ZM16.5 8H25.5V5C25.5 4.575 25.356 4.2185 25.068 3.9305C24.781 3.6435 24.425 3.5 24 3.5H18C17.575 3.5 17.219 3.6435 16.932 3.9305C16.644 4.2185 16.5 4.575 16.5 5V8ZM4.5 8H13.5V5C13.5 4.575 13.3565 4.2185 13.0695 3.9305C12.7815 3.6435 12.425 3.5 12 3.5H6C5.575 3.5 5.2185 3.6435 4.9305 3.9305C4.6435 4.2185 4.5 4.575 4.5 5V8ZM3 15.5H27V12.5C27 12.075 26.856 11.7185 26.568 11.4305C26.281 11.1435 25.925 11 25.5 11H4.5C4.075 11 3.7185 11.1435 3.4305 11.4305C3.1435 11.7185 3 12.075 3 12.5V15.5Z" fill="white"/>
</svg>
