<svg width="27" height="30" viewBox="0 0 27 30" fill="none" xmlns="http://www.w3.org/2000/svg">
<path d="M1 7.2222V10.3333H25.8889V7.2222C25.8889 6.39708 25.5611 5.60575 24.9777 5.02231C24.3942 4.43886 23.6029 4.11108 22.7778 4.11108H4.11111C3.28599 4.11108 2.49467 4.43886 1.91122 5.02231C1.32778 5.60575 1 6.39708 1 7.2222Z" fill="white"/>
<path fill-rule="evenodd" clip-rule="evenodd" d="M7.22222 0C7.77451 0 8.22222 0.447715 8.22222 1V3.11111H18.6667V1C18.6667 0.447715 19.1144 0 19.6667 0C20.219 0 20.6667 0.447715 20.6667 1V3.11111H22.7778C23.8681 3.11111 24.9138 3.54424 25.6848 4.31523C26.4558 5.08621 26.8889 6.13189 26.8889 7.22222V10.3333C26.8889 10.4713 26.861 10.6027 26.8105 10.7222C26.861 10.8418 26.8889 10.9732 26.8889 11.1111V25.8889C26.8889 26.9792 26.4558 28.0249 25.6848 28.7959C24.9138 29.5669 23.8681 30 22.7778 30H4.11111C3.02078 30 1.9751 29.5669 1.20412 28.7959C0.433134 28.0249 0 26.9792 0 25.8889V11.1111C0 10.9732 0.0279269 10.8418 0.0784349 10.7222C0.0279269 10.6027 0 10.4713 0 10.3333V7.22222C0 6.13189 0.433133 5.08621 1.20412 4.31523C1.9751 3.54424 3.02078 3.11111 4.11111 3.11111H6.22222V1C6.22222 0.447715 6.66994 0 7.22222 0ZM2 9.33333V7.22222C2 6.66232 2.22242 6.12535 2.61833 5.72944C3.01424 5.33353 3.55121 5.11111 4.11111 5.11111H22.7778C23.3377 5.11111 23.8746 5.33353 24.2706 5.72944C24.6665 6.12535 24.8889 6.66232 24.8889 7.22222V9.33333H2ZM24.8889 11.3333H2V25.8889C2 26.4488 2.22242 26.9858 2.61833 27.3817C3.01424 27.7776 3.55121 28 4.11111 28H22.7778C23.3377 28 23.8746 27.7776 24.2706 27.3817C24.6665 26.9858 24.8889 26.4488 24.8889 25.8889V11.3333Z" fill="white"/>
</svg>
