<svg width="24" height="23" viewBox="0 0 24 23" fill="none" xmlns="http://www.w3.org/2000/svg">
<path d="M22.7734 4.16881L12.2734 0.668806C12.0953 0.613979 11.9047 0.613979 11.7266 0.668806L1.23749 4.16881H1.21562L1.10624 4.22349H1.0953L0.98593 4.28912C0.98593 4.30006 0.974992 4.30006 0.964055 4.31099L0.876555 4.38756L0.799992 4.47506C0.799992 4.48599 0.789055 4.48599 0.789055 4.49693L0.72343 4.59537C0.72343 4.60631 0.72343 4.60631 0.712492 4.61724L0.668742 4.71568L0.63593 4.83599V4.86881C0.625141 4.91167 0.621447 4.956 0.624992 5.00006V13.7501C0.624992 13.9821 0.717179 14.2047 0.881274 14.3688C1.04537 14.5329 1.26793 14.6251 1.49999 14.6251C1.73206 14.6251 1.95462 14.5329 2.11871 14.3688C2.2828 14.2047 2.37499 13.9821 2.37499 13.7501V6.21412L6.04999 7.43912C5.35957 8.54424 4.99558 9.822 4.99999 11.1251C5.0004 12.3101 5.30166 13.4757 5.87557 14.5126C6.44947 15.5494 7.27722 16.4236 8.28124 17.0532C6.1948 17.8425 4.41359 19.2751 3.1953 21.1438C3.07113 21.3402 3.02906 21.5775 3.07816 21.8045C3.12726 22.0316 3.2636 22.2303 3.4578 22.3579C3.55311 22.421 3.66 22.4646 3.77228 22.4862C3.88456 22.5077 4 22.5067 4.1119 22.4833C4.22381 22.4599 4.32996 22.4146 4.4242 22.3498C4.51845 22.2851 4.59891 22.2023 4.66093 22.1063C5.45513 20.883 6.54255 19.8775 7.82429 19.1815C9.10604 18.4854 10.5414 18.1208 12 18.1208C13.4585 18.1208 14.8939 18.4854 16.1757 19.1815C17.4574 19.8775 18.5449 20.883 19.3391 22.1063C19.4189 22.2276 19.5277 22.3271 19.6557 22.3958C19.7836 22.4646 19.9266 22.5004 20.0719 22.5001C20.2395 22.5018 20.4036 22.4522 20.5422 22.3579C20.7364 22.2303 20.8727 22.0316 20.9218 21.8045C20.9709 21.5775 20.9289 21.3402 20.8047 21.1438C19.5864 19.2751 17.8052 17.8425 15.7187 17.0532C16.7228 16.4236 17.5505 15.5494 18.1244 14.5126C18.6983 13.4757 18.9996 12.3101 19 11.1251C19.0044 9.822 18.6404 8.54424 17.95 7.43912L22.7734 5.83131C22.9485 5.77377 23.1009 5.66243 23.209 5.51316C23.317 5.3639 23.3752 5.18433 23.3752 5.00006C23.3752 4.81578 23.317 4.63621 23.209 4.48695C23.1009 4.33768 22.9485 4.22635 22.7734 4.16881ZM17.25 11.1251C17.25 12.5174 16.6969 13.8528 15.7123 14.8374C14.7277 15.8219 13.3924 16.3751 12 16.3751C10.6076 16.3751 9.27225 15.8219 8.28768 14.8374C7.30312 13.8528 6.74999 12.5174 6.74999 11.1251C6.7521 10.0048 7.10811 8.91378 7.76718 8.00787L11.7266 9.33131C11.9042 9.38974 12.0958 9.38974 12.2734 9.33131L16.2328 8.00787C16.8919 8.91378 17.2479 10.0048 17.25 11.1251ZM16.2328 6.17037H16.2219L12 7.58131L7.77812 6.17037H7.76718L4.26718 5.00006L12 2.41881L19.7328 5.00006L16.2328 6.17037Z" fill="#B0B0B0"/>
</svg>
