<svg width="13" height="13" viewBox="0 0 13 13" fill="none" xmlns="http://www.w3.org/2000/svg">
<path fill-rule="evenodd" clip-rule="evenodd" d="M8.39067 1C8.6407 0.75004 8.97978 0.609619 9.33333 0.609619C9.68688 0.609619 10.026 0.75004 10.276 1L12 2.724C12.25 2.97404 12.3904 3.31312 12.3904 3.66667C12.3904 4.02022 12.25 4.3593 12 4.60933L10.9427 5.66667L7.33333 2.05733L8.39067 1ZM6.39067 3L0.390667 9C0.140601 9.24999 7.55165e-05 9.58907 0 9.94267V11.6667C0 12.0203 0.140476 12.3594 0.390524 12.6095C0.640573 12.8595 0.979711 13 1.33333 13H3.05733C3.41093 12.9999 3.75001 12.8594 4 12.6093L10 6.60933L6.39067 3Z" fill="white"/>
</svg>
