<svg width="66" height="66" viewBox="0 0 66 66" fill="none" xmlns="http://www.w3.org/2000/svg">
<g clip-path="url(#clip0_2_311)">
<circle cx="33" cy="32" r="82" fill="#F70000" fill-opacity="0.1"/>
<circle cx="33" cy="32" r="60" fill="#F70000" fill-opacity="0.1"/>
<circle cx="33" cy="32" r="40" fill="#F70000" fill-opacity="0.1"/>
<path d="M33 60.5C29.1958 60.5 25.6208 59.7777 22.275 58.333C18.9292 56.8902 16.0187 54.9313 13.5437 52.4563C11.0687 49.9813 9.10983 47.0708 7.667 43.725C6.22233 40.3792 5.5 36.8042 5.5 33C5.5 27.775 6.864 22.9506 9.592 18.5268C12.3182 14.1048 16.0187 10.725 20.6937 8.3875C20.7396 9.25833 20.8312 10.1402 20.9687 11.033C21.1062 11.9277 21.3354 12.9708 21.6562 14.1625C18.3562 16.1792 15.7547 18.8485 13.8517 22.1705C11.9506 25.4943 11 29.1042 11 33C11 39.1417 13.1312 44.3438 17.3937 48.6063C21.6562 52.8688 26.8583 55 33 55C39.1417 55 44.3437 52.8688 48.6062 48.6063C52.8687 44.3438 55 39.1417 55 33C55 29.1042 54.0485 25.4833 52.1455 22.1375C50.2443 18.7917 47.6208 16.1104 44.275 14.0938C44.5958 12.9021 44.825 11.8589 44.9625 10.9643C45.1 10.0714 45.2146 9.2125 45.3062 8.3875C49.9812 10.725 53.6827 14.0938 56.4107 18.4938C59.1369 22.8938 60.5 27.7292 60.5 33C60.5 36.8042 59.7777 40.3792 58.333 43.725C56.8902 47.0708 54.9312 49.9813 52.4562 52.4563C49.9812 54.9313 47.0708 56.8902 43.725 58.333C40.3792 59.7777 36.8042 60.5 33 60.5ZM33 49.5C28.4167 49.5 24.5208 47.8958 21.3125 44.6875C18.1042 41.4792 16.5 37.5833 16.5 33C16.5 30.3417 17.0848 27.8438 18.2545 25.5063C19.4223 23.1688 21.0833 21.2208 23.2375 19.6625C23.4667 20.35 23.7188 21.1402 23.9937 22.033C24.2687 22.9277 24.6354 24.0396 25.0937 25.3688C24.0854 26.4229 23.3182 27.5917 22.792 28.875C22.264 30.1583 22 31.5333 22 33C22 36.025 23.0771 38.6146 25.2312 40.7688C27.3854 42.9229 29.975 44 33 44C36.025 44 38.6146 42.9229 40.7687 40.7688C42.9229 38.6146 44 36.025 44 33C44 31.5333 43.7369 30.1583 43.2107 28.875C42.6827 27.5917 41.9146 26.4229 40.9062 25.3688C41.2729 24.2688 41.6057 23.2485 41.9045 22.308C42.2015 21.3693 42.4646 20.4875 42.6937 19.6625C44.8479 21.2208 46.5208 23.1688 47.7125 25.5063C48.9042 27.8438 49.5 30.3417 49.5 33C49.5 37.5833 47.8958 41.4792 44.6875 44.6875C41.4792 47.8958 37.5833 49.5 33 49.5ZM33 0C34.925 0 36.5521 0.664584 37.8812 1.99375C39.2104 3.32292 39.875 4.95 39.875 6.875C39.875 8.3875 39.6807 10.0485 39.292 11.858C38.9015 13.6693 38.0417 16.5688 36.7125 20.5563C36.4375 21.3813 35.9682 22.0578 35.3045 22.5858C34.639 23.1119 33.8708 23.375 33 23.375C32.1292 23.375 31.3619 23.1119 30.6982 22.5858C30.0327 22.0578 29.5625 21.3813 29.2875 20.5563C27.9583 16.5688 27.0994 13.6693 26.7107 11.858C26.3202 10.0485 26.125 8.3875 26.125 6.875C26.125 4.95 26.7896 3.32292 28.1187 1.99375C29.4479 0.664584 31.075 0 33 0ZM33 38.5C31.4875 38.5 30.1932 37.961 29.117 36.883C28.039 35.8068 27.5 34.5125 27.5 33C27.5 31.4875 28.039 30.1923 29.117 29.1143C30.1932 28.0381 31.4875 27.5 33 27.5C34.5125 27.5 35.8077 28.0381 36.8857 29.1143C37.9619 30.1923 38.5 31.4875 38.5 33C38.5 34.5125 37.9619 35.8068 36.8857 36.883C35.8077 37.961 34.5125 38.5 33 38.5Z" fill="url(#paint0_linear_2_311)"/>
</g>
<defs>
<linearGradient id="paint0_linear_2_311" x1="33" y1="0" x2="33" y2="50.05" gradientUnits="userSpaceOnUse">
<stop stop-color="#FF0000"/>
<stop offset="1" stop-color="#CA0000"/>
</linearGradient>
<clipPath id="clip0_2_311">
<rect width="66" height="66" fill="white"/>
</clipPath>
</defs>
</svg>
