<svg width="22" height="16" viewBox="0 0 22 16" fill="none" xmlns="http://www.w3.org/2000/svg">
<path d="M9 8C9 8.53043 9.21071 9.03914 9.58579 9.41421C9.96086 9.78929 10.4696 10 11 10C11.5304 10 12.0391 9.78929 12.4142 9.41421C12.7893 9.03914 13 8.53043 13 8C13 7.46957 12.7893 6.96086 12.4142 6.58579C12.0391 6.21071 11.5304 6 11 6C10.4696 6 9.96086 6.21071 9.58579 6.58579C9.21071 6.96086 9 7.46957 9 8Z" stroke="white" stroke-width="2" stroke-linecap="round" stroke-linejoin="round"/>
<path d="M21 8C18.333 12.667 15 15 11 15C7 15 3.667 12.667 1 8C3.667 3.333 7 1 11 1C15 1 18.333 3.333 21 8Z" stroke="white" stroke-width="2" stroke-linecap="round" stroke-linejoin="round"/>
</svg>
