<svg width="274" height="179" viewBox="0 0 274 179" fill="none" xmlns="http://www.w3.org/2000/svg">
<path d="M21.0177 131.648C50.7643 119.055 108.918 88.7328 113.595 41.5161L102.03 39.7368L126.643 19.2753L140.284 46.2609L127.937 44.185C118.841 96.8649 53.6015 123.71 21.0177 131.648Z" fill="white"/>
<path d="M34.8024 160.959C74.799 144.026 152.991 103.256 159.28 39.7694L143.73 37.377L176.824 9.86489L195.166 46.1491L178.563 43.3579C166.334 114.19 78.6137 150.285 34.8024 160.959Z" fill="white"/>
<path d="M66.6774 178.156C113.174 158.471 204.075 111.074 211.386 37.2698L193.308 34.4886L231.781 2.50511L253.103 44.6864L233.803 41.4416C219.586 123.786 117.609 165.747 66.6774 178.156Z" fill="white"/>
</svg>
