<svg width="463" height="301" viewBox="0 0 463 301" fill="none" xmlns="http://www.w3.org/2000/svg">
    <path
        d="M36.4065 221.97C86.5618 200.737 184.614 149.611 192.5 69.9998L173 66.9998L214.5 32.5L237.5 78L216.681 74.4998C201.345 163.323 91.3454 208.586 36.4065 221.97Z"
        fill="#ffffff" />
    <path
        d="M59.6485 271.39C127.086 242.84 258.924 174.098 269.528 67.0546L243.309 63.0209L299.109 16.6332L330.034 77.8114L302.042 73.1052C281.421 192.534 133.518 253.394 59.6485 271.39Z"
        fill="#7b88ff" />
    <path
        d="M113.392 300.385C191.79 267.195 345.056 187.28 357.383 62.8397L326.902 58.1504L391.771 4.22363L427.722 75.3448L395.18 69.8737C371.208 208.713 199.268 279.463 113.392 300.385Z"
        fill="#2e05ff" />
</svg>