<svg width="17" height="22" viewBox="0 0 17 22" fill="none" xmlns="http://www.w3.org/2000/svg">
<mask id="mask0_2_144" style="mask-type:luminance" maskUnits="userSpaceOnUse" x="0" y="0" width="17" height="22">
<path fill-rule="evenodd" clip-rule="evenodd" d="M3.96856 1.53505C4.57767 1.07878 5.34576 0.916626 6.07496 0.916626H11.2083C11.7146 0.916626 12.125 1.32703 12.125 1.83329C12.125 2.33955 11.7146 2.74996 11.2083 2.74996H8.91663V4.12496H10.2916C10.7979 4.12496 11.2083 4.53536 11.2083 5.04163V6.95899C11.5546 7.02302 11.8941 7.12332 12.221 7.25873C12.8327 7.5121 13.3885 7.88347 13.8566 8.35163C14.3248 8.81979 14.6962 9.37558 14.9495 9.98726C15.2029 10.5989 15.3333 11.2545 15.3333 11.9166V12.3644C15.3333 12.8707 14.9229 13.2811 14.4166 13.2811C13.9104 13.2811 13.5 12.8707 13.5 12.3644V11.9166C13.5 11.4953 13.417 11.0781 13.2557 10.6888C13.0945 10.2996 12.8582 9.94591 12.5603 9.64799C12.2623 9.35007 11.9087 9.11375 11.5194 8.95251C11.1301 8.79128 10.713 8.70829 10.2916 8.70829H5.70829C4.85739 8.70829 4.04134 9.04631 3.43966 9.64799C2.83798 10.2497 2.49996 11.0657 2.49996 11.9166V16.0416C2.49996 16.8925 2.83798 17.7086 3.43966 18.3103C4.04134 18.9119 4.85739 19.25 5.70829 19.25H7.99996C8.50622 19.25 8.91663 19.6604 8.91663 20.1666C8.91663 20.6729 8.50622 21.0833 7.99996 21.0833H5.70829C4.37116 21.0833 3.08879 20.5521 2.1433 19.6066C1.1978 18.6611 0.666626 17.3788 0.666626 16.0416V11.9166C0.666626 10.5795 1.1978 9.29713 2.1433 8.35163C2.86983 7.6251 3.79527 7.1432 4.79163 6.95897V5.04163C4.79163 4.53536 5.20203 4.12496 5.70829 4.12496H7.08329V2.74996H6.07496C5.58591 2.74996 5.254 2.8628 5.06768 3.00237C4.91982 3.11312 4.79163 3.28937 4.79163 3.66663C4.79163 4.17289 4.38122 4.58329 3.87496 4.58329C3.3687 4.58329 2.95829 4.17289 2.95829 3.66663C2.95829 2.76055 3.32097 2.02013 3.96856 1.53505ZM6.62496 5.95829V6.87496H9.37496V5.95829H6.62496Z" fill="white"/>
<path d="M15.3333 18.2279C15.3333 19.2986 14.4097 20.1667 13.2708 20.1667C12.1318 20.1667 11.2083 19.2986 11.2083 18.2279C11.2083 17.1568 12.5558 15.125 13.2708 15.125C13.9858 15.125 15.3333 17.1568 15.3333 18.2279Z" fill="white"/>
<path fill-rule="evenodd" clip-rule="evenodd" d="M12.2802 17.6338C12.1628 17.9251 12.125 18.1278 12.125 18.2278C12.125 18.7396 12.5838 19.2499 13.2708 19.2499C13.9578 19.2499 14.4166 18.7396 14.4166 18.2278C14.4166 18.1278 14.3788 17.9251 14.2614 17.6338C14.1497 17.3568 13.9894 17.0572 13.8066 16.7818C13.6215 16.5032 13.4329 16.2788 13.2765 16.136C13.2746 16.1342 13.2727 16.1325 13.2708 16.1308C13.2689 16.1325 13.267 16.1342 13.2651 16.136C13.1087 16.2788 12.9201 16.5032 12.735 16.7818C12.5522 17.0572 12.3919 17.3568 12.2802 17.6338ZM13.4247 16.0146C13.4247 16.0146 13.4232 16.0154 13.4203 16.0166C13.4233 16.0151 13.4247 16.0145 13.4247 16.0146ZM13.1212 16.0166C13.1184 16.0154 13.1169 16.0146 13.1169 16.0146C13.1169 16.0145 13.1183 16.0151 13.1212 16.0166ZM12.5366 14.4103C12.7183 14.3108 12.9723 14.2083 13.2708 14.2083C13.5693 14.2083 13.8233 14.3108 14.005 14.4103C14.1934 14.5135 14.3642 14.6465 14.5129 14.7823C14.8103 15.0539 15.0926 15.4043 15.3338 15.7676C15.5772 16.134 15.7984 16.5432 15.9618 16.9484C16.1194 17.3394 16.25 17.7924 16.25 18.2278C16.25 19.8574 14.8617 21.0833 13.2708 21.0833C11.6798 21.0833 10.2916 19.8574 10.2916 18.2278C10.2916 17.7924 10.4222 17.3394 10.5798 16.9484C10.7432 16.5432 10.9644 16.134 11.2078 15.7676C11.449 15.4043 11.7313 15.0539 12.0287 14.7823C12.1774 14.6465 12.3482 14.5135 12.5366 14.4103Z" fill="white"/>
</mask>
<g mask="url(#mask0_2_144)">
<path d="M-3 0H19V22H-3V0Z" fill="#B0B0B0"/>
</g>
</svg>
