<svg width="16" height="20" viewBox="0 0 16 20" fill="none" xmlns="http://www.w3.org/2000/svg">
<path fill-rule="evenodd" clip-rule="evenodd" d="M0.988156 2.57165C1.30072 2.25909 1.72464 2.0835 2.16667 2.0835H5.08333C5.54357 2.0835 5.91667 2.45659 5.91667 2.91683V3.3335H10.0833V2.91683C10.0833 2.45659 10.4564 2.0835 10.9167 2.0835H13.8333C14.2754 2.0835 14.6993 2.25909 15.0118 2.57165C15.3244 2.88421 15.5 3.30814 15.5 3.75016V17.5002C15.5 17.9422 15.3244 18.3661 15.0118 18.6787C14.6993 18.9912 14.2754 19.1668 13.8333 19.1668H2.16667C1.72464 19.1668 1.30072 18.9912 0.988156 18.6787C0.675595 18.3661 0.5 17.9422 0.5 17.5002V3.75016C0.5 3.30813 0.675595 2.88421 0.988156 2.57165ZM11.75 3.75016V4.16683C11.75 4.62707 11.3769 5.00016 10.9167 5.00016H5.08333C4.6231 5.00016 4.25 4.62707 4.25 4.16683V3.75016H2.16667L2.16667 17.5002H13.8333V3.75016H11.75Z" fill="#B0B0B0"/>
<path fill-rule="evenodd" clip-rule="evenodd" d="M4.25 1.66683C4.25 1.20659 4.6231 0.833496 5.08333 0.833496H10.9167C11.3769 0.833496 11.75 1.20659 11.75 1.66683V4.16683C11.75 4.62707 11.3769 5.00016 10.9167 5.00016H5.08333C4.6231 5.00016 4.25 4.62707 4.25 4.16683V1.66683ZM5.91667 2.50016V3.3335H10.0833V2.50016H5.91667ZM9.83922 7.32754C10.1647 7.65295 10.1647 8.18059 9.83929 8.50605L7.92833 10.4172H10.085C10.4221 10.4172 10.726 10.6203 10.8549 10.9318C10.9839 11.2432 10.9125 11.6017 10.6741 11.84L7.33911 15.1733C7.01359 15.4987 6.48595 15.4985 6.1606 15.173C5.83524 14.8475 5.83537 14.3199 6.16089 13.9945L8.07244 12.0839H5.91667C5.57962 12.0839 5.27577 11.8809 5.14678 11.5695C5.01779 11.2581 5.08906 10.8997 5.32737 10.6614L8.66071 7.32761C8.98612 7.00215 9.51376 7.00212 9.83922 7.32754Z" fill="#B0B0B0"/>
</svg>
