<svg width="18" height="22" viewBox="0 0 18 22" fill="none" xmlns="http://www.w3.org/2000/svg">
<path d="M3 7.5V6.5C3 3.18629 5.68629 0.5 9 0.5C12.3137 0.5 15 3.18629 15 6.5V7.5H17C17.5523 7.5 18 7.94772 18 8.5V20.5C18 21.0523 17.5523 21.5 17 21.5H1C0.44772 21.5 0 21.0523 0 20.5V8.5C0 7.94772 0.44772 7.5 1 7.5H3ZM16 9.5H2V19.5H16V9.5ZM8 15.2324C7.4022 14.8866 7 14.2403 7 13.5C7 12.3954 7.8954 11.5 9 11.5C10.1046 11.5 11 12.3954 11 13.5C11 14.2403 10.5978 14.8866 10 15.2324V17.5H8V15.2324ZM5 7.5H13V6.5C13 4.29086 11.2091 2.5 9 2.5C6.79086 2.5 5 4.29086 5 6.5V7.5Z" fill="black"/>
</svg>
