<svg width="20" height="29" viewBox="0 0 20 29" fill="none" xmlns="http://www.w3.org/2000/svg">
<path d="M18.3333 8.99996C18.3333 6.69829 17.4 4.61496 15.8933 3.10829C14.385 1.59996 12.3017 0.666626 10 0.666626C7.69833 0.666626 5.615 1.59996 4.10667 3.10829C2.6 4.61496 1.66667 6.69829 1.66667 8.99996C1.66667 11.3016 2.6 13.385 4.10667 14.8916C5.615 16.4 7.69833 17.3333 10 17.3333C12.3017 17.3333 14.385 16.4 15.8933 14.8916C16.6681 14.1187 17.2825 13.2003 17.7012 12.1893C18.12 11.1782 18.3348 10.0943 18.3333 8.99996ZM0 25.6666C0 27.3333 3.75 29 10 29C15.8633 29 20 27.3333 20 25.6666C20 22.3333 16.0767 19 10 19C3.75 19 0 22.3333 0 25.6666Z" fill="#00FFF5"/>
</svg>
