<svg width="20" height="18" viewBox="0 0 20 18" fill="none" xmlns="http://www.w3.org/2000/svg">
<path d="M5.31519 0.599977C4.63546 0.600478 3.97604 0.831802 3.44496 1.25606C2.91388 1.68031 2.54262 2.27234 2.39199 2.93518L0.48279 11.3352C0.383011 11.7742 0.383346 12.2301 0.483769 12.6691C0.584193 13.108 0.782129 13.5187 1.0629 13.8707C1.34367 14.2227 1.70008 14.507 2.10569 14.7025C2.51131 14.898 2.95572 14.9996 3.40599 15H16.594C17.0444 14.9998 17.4889 14.8983 17.8947 14.7029C18.3004 14.5074 18.657 14.2232 18.9379 13.8712C19.2188 13.5191 19.4169 13.1084 19.5173 12.6694C19.6178 12.2304 19.6182 11.7743 19.5184 11.3352L17.6104 2.93518C17.4596 2.27154 17.0876 1.6789 16.5555 1.25456C16.0235 0.830216 15.3629 0.59939 14.6824 0.599977H5.31519ZM3.56079 3.20158C3.65109 2.80371 3.87388 2.44832 4.19264 2.19366C4.51139 1.93901 4.9072 1.80019 5.31519 1.79998H14.6836C15.0918 1.79992 15.4879 1.93861 15.8069 2.19329C16.1259 2.44797 16.3488 2.80351 16.4392 3.20158L18.3484 11.6016C18.4082 11.8651 18.4079 12.1388 18.3475 12.4022C18.2871 12.6656 18.1682 12.912 17.9996 13.1232C17.8309 13.3344 17.6169 13.5049 17.3734 13.622C17.1298 13.7392 16.863 13.8 16.5928 13.8H3.40599C3.13584 13.7998 2.86919 13.7389 2.6258 13.6216C2.38242 13.5044 2.16854 13.3339 2.00004 13.1227C1.83153 12.9116 1.71271 12.6652 1.65239 12.4019C1.59207 12.1386 1.5918 11.865 1.65159 11.6016L3.56079 3.20158ZM4.59999 16.2C4.44086 16.2 4.28825 16.2632 4.17573 16.3757C4.0632 16.4882 3.99999 16.6408 3.99999 16.8C3.99999 16.9591 4.0632 17.1117 4.17573 17.2242C4.28825 17.3368 4.44086 17.4 4.59999 17.4H15.4C15.5591 17.4 15.7117 17.3368 15.8243 17.2242C15.9368 17.1117 16 16.9591 16 16.8C16 16.6408 15.9368 16.4882 15.8243 16.3757C15.7117 16.2632 15.5591 16.2 15.4 16.2H4.59999Z" fill="#B0B0B0"/>
</svg>
