<svg width="20" height="14" viewBox="0 0 20 14" fill="none" xmlns="http://www.w3.org/2000/svg">
<path d="M1 14C0.716667 14 0.479333 13.904 0.288 13.712C0.0960001 13.5207 0 13.2833 0 13V8C0 7.55 0.0916668 7.14167 0.275 6.775C0.458333 6.40833 0.7 6.08333 1 5.8V3C1 2.16667 1.29167 1.45833 1.875 0.875C2.45833 0.291667 3.16667 0 4 0H8C8.38333 0 8.74167 0.0709998 9.075 0.213C9.40833 0.354333 9.71667 0.55 10 0.8C10.2833 0.55 10.5917 0.354333 10.925 0.213C11.2583 0.0709998 11.6167 0 12 0H16C16.8333 0 17.5417 0.291667 18.125 0.875C18.7083 1.45833 19 2.16667 19 3V5.8C19.3 6.08333 19.5417 6.40833 19.725 6.775C19.9083 7.14167 20 7.55 20 8V13C20 13.2833 19.904 13.5207 19.712 13.712C19.5207 13.904 19.2833 14 19 14C18.7167 14 18.4793 13.904 18.288 13.712C18.096 13.5207 18 13.2833 18 13V12H2V13C2 13.2833 1.90433 13.5207 1.713 13.712C1.521 13.904 1.28333 14 1 14ZM11 5H17V3C17 2.71667 16.904 2.479 16.712 2.287C16.5207 2.09567 16.2833 2 16 2H12C11.7167 2 11.4793 2.09567 11.288 2.287C11.096 2.479 11 2.71667 11 3V5ZM3 5H9V3C9 2.71667 8.90433 2.479 8.713 2.287C8.521 2.09567 8.28333 2 8 2H4C3.71667 2 3.479 2.09567 3.287 2.287C3.09567 2.479 3 2.71667 3 3V5ZM2 10H18V8C18 7.71667 17.904 7.479 17.712 7.287C17.5207 7.09567 17.2833 7 17 7H3C2.71667 7 2.479 7.09567 2.287 7.287C2.09567 7.479 2 7.71667 2 8V10Z" fill="white"/>
</svg>
