<svg width="24" height="17" viewBox="0 0 24 17" fill="none" xmlns="http://www.w3.org/2000/svg">
<path d="M22.3176 0.280029H1.69013C1.02677 0.280029 0.483887 0.883389 0.483887 1.48003C0.483887 2.07667 1.02677 2.67955 1.69013 2.67955H1.98149V5.07955H22.0556V2.67955H22.3176C22.9815 2.67955 23.5239 2.07667 23.5239 1.48003C23.5239 0.883389 22.9815 0.280029 22.3176 0.280029ZM12.0039 3.88963C11.6708 3.88963 11.401 3.61171 11.401 3.26947C11.401 2.92723 11.6708 2.64931 12.0039 2.64931C12.3375 2.64931 12.6068 2.92723 12.6068 3.26947C12.6068 3.61171 12.3375 3.88963 12.0039 3.88963ZM1.98149 9.87907H22.0556V6.04003H1.98149V9.87907ZM12.0039 7.29955C12.3375 7.29955 12.6068 7.57699 12.6068 7.91923C12.6068 8.26195 12.3375 8.53939 12.0039 8.53939C11.6708 8.53939 11.401 8.26195 11.401 7.91923C11.4005 7.57699 11.6708 7.29955 12.0039 7.29955ZM1.98149 13.1896V15.9803C1.98149 16.3211 2.02421 16.6005 2.35589 16.6005H4.76741C5.09909 16.6005 5.24933 16.3211 5.24933 15.9803V14.1995H18.7877V15.9803C18.7877 16.3211 18.9087 16.6005 19.2399 16.6005H21.6519C21.9826 16.6005 22.0551 16.3211 22.0551 15.9803V10.84H1.98149V13.1896ZM12.0039 11.9498C12.3375 11.9498 12.6068 12.2277 12.6068 12.5695C12.6068 12.9127 12.3375 13.1891 12.0039 13.1891C11.6708 13.1891 11.401 12.9127 11.401 12.5695C11.4005 12.2282 11.6708 11.9498 12.0039 11.9498Z" fill="#B0B0B0"/>
</svg>
