<svg width="14" height="14" viewBox="0 0 14 14" fill="none" xmlns="http://www.w3.org/2000/svg">
<path d="M8.74996 12.8334L3.49996 12.8334C2.85829 12.8334 2.33329 12.3084 2.33329 11.6667L2.33329 2.33337C2.33329 1.69171 2.85829 1.16671 3.49996 1.16671L8.74996 1.16671C9.39163 1.16671 9.91663 1.69171 9.91663 2.33337L9.91663 3.50004L8.74996 3.50004L8.74996 2.33337L3.49996 2.33337L3.49996 11.6667L8.74996 11.6667L8.74996 10.5L9.91663 10.5L9.91663 11.6667C9.91663 12.3084 9.39163 12.8334 8.74996 12.8334Z" fill="#FFE605"/>
<path d="M8.11417 4.90579L7.29167 4.08329L4.375 6.99996L7.29167 9.91663L8.11417 9.09413L6.60917 7.58329L12.25 7.58329L12.25 6.41663L6.60917 6.41663L8.11417 4.90579Z" fill="#FFE605"/>
</svg>
