<svg width="20" height="14" viewBox="0 0 20 14" fill="none" xmlns="http://www.w3.org/2000/svg">
<path d="M18.5981 0.400024H1.40852C0.85572 0.400024 0.40332 0.902824 0.40332 1.40002C0.40332 1.89722 0.85572 2.39962 1.40852 2.39962H1.65132V4.39962H18.3797V2.39962H18.5981C19.1513 2.39962 19.6033 1.89722 19.6033 1.40002C19.6033 0.902824 19.1513 0.400024 18.5981 0.400024ZM10.0033 3.40802C9.72572 3.40802 9.50092 3.17642 9.50092 2.89122C9.50092 2.60602 9.72572 2.37442 10.0033 2.37442C10.2813 2.37442 10.5057 2.60602 10.5057 2.89122C10.5057 3.17642 10.2813 3.40802 10.0033 3.40802ZM1.65132 8.39922H18.3797V5.20002H1.65132V8.39922ZM10.0033 6.24962C10.2813 6.24962 10.5057 6.48082 10.5057 6.76603C10.5057 7.05162 10.2813 7.28282 10.0033 7.28282C9.72572 7.28282 9.50092 7.05162 9.50092 6.76603C9.50052 6.48082 9.72572 6.24962 10.0033 6.24962ZM1.65132 11.158V13.4836C1.65132 13.7676 1.68692 14.0004 1.96332 14.0004H3.97292C4.24932 14.0004 4.37452 13.7676 4.37452 13.4836V11.9996H15.6565V13.4836C15.6565 13.7676 15.7573 14.0004 16.0333 14.0004H18.0433C18.3189 14.0004 18.3793 13.7676 18.3793 13.4836V9.20002H1.65132V11.158ZM10.0033 10.1248C10.2813 10.1248 10.5057 10.3564 10.5057 10.6412C10.5057 10.9272 10.2813 11.1576 10.0033 11.1576C9.72572 11.1576 9.50092 10.9272 9.50092 10.6412C9.50052 10.3568 9.72572 10.1248 10.0033 10.1248Z" fill="white"/>
</svg>
