<svg width="16" height="22" viewBox="0 0 16 22" fill="none" xmlns="http://www.w3.org/2000/svg">
<path d="M16 21.5H14V19.5C14 17.8431 12.6569 16.5 11 16.5H5C3.34315 16.5 2 17.8431 2 19.5V21.5H0V19.5C0 16.7386 2.23858 14.5 5 14.5H11C13.7614 14.5 16 16.7386 16 19.5V21.5ZM8 12.5C4.68629 12.5 2 9.8137 2 6.5C2 3.18629 4.68629 0.5 8 0.5C11.3137 0.5 14 3.18629 14 6.5C14 9.8137 11.3137 12.5 8 12.5ZM8 10.5C10.2091 10.5 12 8.70914 12 6.5C12 4.29086 10.2091 2.5 8 2.5C5.79086 2.5 4 4.29086 4 6.5C4 8.70914 5.79086 10.5 8 10.5Z" fill="black"/>
</svg>
