<svg width="22" height="22" viewBox="0 0 22 22" fill="none" xmlns="http://www.w3.org/2000/svg">
<path d="M11.0534 0.560059C5.17339 0.560059 0.386719 4.74673 0.386719 9.89339C0.386719 15.0401 5.17339 19.2267 11.0534 19.2267C12.1625 19.2287 13.2664 19.0761 14.3334 18.7734L18.0201 21.1201C18.1686 21.2153 18.3489 21.2477 18.5214 21.2102C18.6938 21.1727 18.8444 21.0684 18.9401 20.9201C19.0094 20.8128 19.0464 20.6878 19.0467 20.5601V16.0734C19.8809 15.2732 20.5465 14.3142 21.0045 13.2528C21.4625 12.1915 21.7035 11.0493 21.7134 9.89339C21.7201 4.74673 16.9334 0.560059 11.0534 0.560059ZM17.9134 15.3001C17.8464 15.3622 17.7928 15.4375 17.7561 15.5212C17.7194 15.6049 17.7003 15.6953 17.7001 15.7867V19.3467L14.7801 17.4867C14.6986 17.4352 14.607 17.402 14.5114 17.3894C14.4159 17.3767 14.3188 17.3849 14.2267 17.4134C13.1992 17.7325 12.1293 17.8944 11.0534 17.8934C5.90672 17.8934 1.72005 14.3067 1.72005 9.89339C1.72005 5.48006 5.90672 1.89339 11.0534 1.89339C16.2001 1.89339 20.3867 5.48006 20.3867 9.89339C20.3707 10.9166 20.1426 11.9254 19.7169 12.856C19.2912 13.7867 18.6771 14.6189 17.9134 15.3001Z" fill="#B0B0B0"/>
<path d="M19.7334 9.5467L19.6667 9.4467L18.0001 7.96003C17.7855 7.76477 17.5339 7.61459 17.2602 7.5184C16.9865 7.4222 16.6963 7.38195 16.4067 7.40003L12.8201 7.6267L10.4267 5.6267C10.3296 5.54507 10.2069 5.50023 10.0801 5.50003H8.04006C7.94649 5.49898 7.85436 5.52319 7.7734 5.57013C7.69244 5.61706 7.62565 5.68497 7.58006 5.7667C7.53249 5.8463 7.50737 5.9373 7.50737 6.03003C7.50737 6.12277 7.53249 6.21377 7.58006 6.29337L8.48673 7.92003L5.34673 8.11337L6.22006 9.1267L16.4801 8.46003C16.628 8.45057 16.7762 8.47108 16.916 8.52034C17.0558 8.5696 17.1841 8.6466 17.2934 8.7467L18.8667 10.1667C18.8718 10.1818 18.8718 10.1982 18.8667 10.2134C18.8667 10.2534 18.8067 10.2467 18.8001 10.2534H13.5467L13.3134 10.5L9.8534 14.1867H8.76006L10.5801 10.2534H4.6934L3.7534 8.44003L3.34006 7.6667C3.26181 7.57039 3.15242 7.50437 3.03073 7.48004C2.90904 7.4557 2.78268 7.47456 2.6734 7.53337C2.549 7.60345 2.45741 7.71994 2.41868 7.85737C2.37995 7.9948 2.39723 8.14197 2.46673 8.2667L3.80006 10.8934C3.86867 11.0248 3.97216 11.1347 4.09918 11.2112C4.2262 11.2876 4.37182 11.3276 4.52006 11.3267H8.90006L7.60673 14.1134C7.55033 14.2368 7.52624 14.3725 7.53674 14.5078C7.54723 14.6431 7.59197 14.7735 7.66673 14.8867C7.73878 14.9988 7.83725 15.0914 7.95349 15.1565C8.06974 15.2216 8.2002 15.2572 8.3334 15.26H9.9534C10.064 15.2608 10.1736 15.238 10.2747 15.1932C10.3759 15.1483 10.4663 15.0825 10.5401 15L13.9934 11.3267H18.7667C18.9758 11.3324 19.1822 11.2783 19.3617 11.1709C19.5412 11.0634 19.6863 10.907 19.7801 10.72C19.8774 10.538 19.9244 10.3333 19.9162 10.127C19.908 9.92077 19.8449 9.72043 19.7334 9.5467ZM8.94673 6.54003H9.88673L11.2801 7.72003L9.66673 7.82003L8.94673 6.54003Z" fill="#B0B0B0"/>
</svg>
